# xmcd
#
# Track frame offsets: 
#        150
#        13432
#        26472
#        38190
#        50745
#        63440
#        76440
#        87522
#        99975
#        113647
#        126655
#        138602
#        150612
#        164052
#        174200
#        184587
#        195432
#        208270
#        220030
#        231565
#        243565
#        255722
#        267962
#        280832
#        293240
#        305165
#        316437
#        327315
#        339160
#
# Disc length: 4672 seconds
#
# Revision: 1
# Processed by: cddbd v1.5.1PL0 Copyright (c) Steve Scherf et al.
# Submitted via: ExactAudioCopy v0.95a5
#
DISCID=bb123e1d
DTITLE=Ernest Tubb and The Texas Troubadours - Waltz Across Texas - CD2
DYEAR=1998
DGENRE=Country
TTITLE0=Beyond The Last Mile
TTITLE1=Just Call Me Lonesome
TTITLE2=Just Partners
TTITLE3=If You Call That Gone, Goodbye
TTITLE4=How Can I Be Sure
TTITLE5=I'll Never Tell You I Love You
TTITLE6=I Think I'll Give Up (It's All Over)
TTITLE7=I'm As Free As The Breeze
TTITLE8=Just Call Me Lonesome
TTITLE9=House Of Sorrow
TTITLE10=No Letter Today
TTITLE11=The Great Speckled Bird
TTITLE12=Family Bible
TTITLE13=He'lll Understand And Say Well Done
TTITLE14=Mr. Juke Box (Alt)
TTITLE15=Mr. Juke Box
TTITLE16=Walking The Floor Over You
TTITLE17=That's All She Wrote
TTITLE18=Just One More
TTITLE19=Wings Of A Dove
TTITLE20=I Saw The Light
TTITLE21=Stand By Me
TTITLE22=What A Friend We Have In Jesus
TTITLE23=When It's Prayer Meeting Time In The Hollow
TTITLE24=Precious Memories
TTITLE25=If We Never Meet Again
TTITLE26=Lonesome Valley
TTITLE27=Follow Me
TTITLE28=Your Side Of The Story 
EXTD=
EXTT0=
EXTT1=
EXTT2=
EXTT3=
EXTT4=
EXTT5=
EXTT6=
EXTT7=
EXTT8=
EXTT9=
EXTT10=
EXTT11=
EXTT12=
EXTT13=
EXTT14=
EXTT15=
EXTT16=
EXTT17=
EXTT18=
EXTT19=
EXTT20=
EXTT21=
EXTT22=
EXTT23=
EXTT24=
EXTT25=
EXTT26=
EXTT27=
EXTT28=
PLAYORDER=
